<?xml version="1.0" standalone="no"?>
<!DOCTYPE svg PUBLIC "-//W3C//DTD SVG 20010904//EN"
 "http://www.w3.org/TR/2001/REC-SVG-20010904/DTD/svg10.dtd">
<svg version="1.0" xmlns="http://www.w3.org/2000/svg"
 width="360.000000pt" height="360.000000pt" viewBox="0 0 360.000000 360.000000"
 preserveAspectRatio="xMidYMid meet">

<g transform="translate(0.000000,360.000000) scale(0.100000,-0.100000)"
fill="#000000" stroke="none">
<path d="M628 3329 c-10 -5 -38 -50 -64 -100 -29 -56 -55 -94 -68 -99 -12 -4
-57 -13 -101 -20 -86 -13 -125 -31 -125 -56 0 -8 35 -52 79 -97 l78 -83 -15
-112 c-12 -90 -12 -115 -2 -127 18 -22 30 -19 140 31 l100 47 100 -49 c120
-57 135 -55 135 22 0 27 -4 81 -8 119 l-8 70 75 80 c108 115 105 127 -49 155
-59 11 -110 22 -113 25 -3 3 -26 44 -52 92 -50 94 -74 118 -102 102z m58 -196
c20 -38 42 -71 48 -75 6 -4 44 -13 84 -19 39 -6 72 -14 72 -18 0 -3 -25 -31
-57 -63 l-56 -57 11 -78 c6 -43 9 -80 6 -82 -3 -3 -34 9 -70 27 -35 18 -71 32
-79 32 -9 0 -42 -13 -75 -30 -33 -16 -63 -30 -67 -30 -5 0 -4 36 1 79 l9 79
-53 62 c-29 33 -51 62 -49 65 2 2 38 9 79 17 l75 13 40 73 c22 39 41 72 42 72
1 0 18 -30 39 -67z"/>
<path d="M1320 3320 c-19 -19 -20 -33 -20 -331 0 -195 4 -318 10 -330 10 -18
24 -19 285 -19 l274 0 53 -86 c28 -47 60 -90 69 -95 25 -13 50 13 102 101 43
74 44 75 88 78 24 2 49 8 56 14 10 8 13 85 13 334 0 280 -2 325 -16 338 -14
14 -69 16 -455 16 -426 0 -440 -1 -459 -20z m850 -334 l0 -265 -42 -3 c-41 -3
-44 -5 -82 -71 l-39 -69 -45 71 -44 71 -264 0 -264 0 0 265 0 265 390 0 390 0
0 -264z"/>
<path d="M1487 3162 c-22 -24 -21 -35 1 -55 16 -15 51 -17 286 -17 165 0 275
4 287 10 11 6 19 21 19 35 0 14 -8 29 -19 35 -12 6 -122 10 -289 10 -248 0
-270 -1 -285 -18z"/>
<path d="M1486 3014 c-22 -21 -20 -40 6 -58 19 -14 64 -16 286 -16 162 0 271
4 283 10 21 12 25 50 7 68 -9 9 -87 12 -289 12 -239 0 -280 -2 -293 -16z"/>
<path d="M1486 2864 c-19 -19 -20 -25 -3 -47 11 -16 38 -17 296 -15 258 3 285
5 295 21 8 12 8 22 0 35 -10 15 -37 17 -292 20 -245 2 -282 0 -296 -14z"/>
<path d="M2906 3325 c-14 -14 -16 -44 -16 -209 0 -152 3 -196 14 -205 9 -8 74
-11 212 -9 l199 3 9 27 c13 38 -16 150 -58 218 -42 69 -138 144 -209 164 -94
26 -133 29 -151 11z m171 -111 c77 -37 139 -117 158 -202 l7 -33 -134 3 -133
3 -3 119 c-1 66 0 126 3 134 6 16 28 11 102 -24z"/>
<path d="M2720 3196 c-172 -37 -298 -183 -308 -357 -10 -171 79 -320 234 -391
41 -20 66 -23 159 -23 102 0 114 2 169 30 117 59 196 167 219 298 16 98 18 97
-179 97 l-164 0 0 160 c0 147 -2 162 -20 180 -23 23 -33 23 -110 6z m40 -239
c0 -113 4 -167 12 -175 8 -8 62 -12 175 -12 189 0 183 4 132 -99 -116 -233
-454 -222 -562 18 -30 67 -29 178 2 249 38 84 154 177 229 181 9 1 12 -38 12
-162z"/>
<path d="M1566 2287 c-13 -10 -17 -22 -14 -40 4 -23 -1 -30 -37 -51 -53 -32
-102 -87 -128 -144 -30 -69 -21 -201 21 -307 27 -67 32 -94 32 -162 0 -112 26
-179 97 -252 49 -50 54 -59 48 -88 l-6 -33 -122 0 c-67 0 -147 -4 -177 -9
-179 -30 -325 -152 -379 -319 -19 -57 -21 -87 -21 -332 0 -256 1 -270 19 -280
13 -7 306 -10 878 -10 761 0 861 2 881 16 22 15 22 18 22 262 0 190 -4 261
-15 307 -44 166 -174 301 -335 346 -25 6 -114 15 -199 18 l-155 6 -8 30 c-7
27 -3 34 42 78 73 71 100 138 110 266 6 79 14 122 34 168 72 172 51 319 -53
373 -21 10 -45 30 -55 44 -43 67 -136 100 -303 111 -59 3 -119 8 -133 11 -14
2 -34 -2 -44 -9z m347 -115 c31 -14 54 -33 71 -60 17 -27 35 -42 55 -47 49
-11 71 -48 71 -119 l0 -61 -24 50 c-27 58 -47 78 -99 100 -45 19 -87 19 -157
1 -48 -13 -62 -12 -114 1 -112 28 -189 2 -237 -82 l-29 -50 0 38 c0 97 66 174
183 211 11 3 21 16 24 27 6 21 10 22 108 17 72 -4 116 -12 148 -26z m-179
-226 c41 -13 53 -13 88 0 22 8 64 14 93 14 97 0 118 -51 116 -289 -1 -161 -2
-168 -29 -221 -78 -154 -290 -185 -408 -58 -62 65 -68 89 -72 255 -6 245 19
313 116 313 27 0 70 -6 96 -14z m158 -736 c6 -17 5 -26 -4 -32 -7 -4 -35 -21
-63 -37 l-50 -30 -57 35 c-32 20 -58 42 -58 49 0 37 9 40 117 39 102 -1 107
-2 115 -24z m-499 -207 c31 -70 57 -115 68 -118 10 -3 36 3 57 14 l40 20 39
-30 c21 -17 39 -32 41 -34 2 -1 -9 -116 -24 -254 l-27 -251 -188 0 -189 0 -2
183 -3 182 -29 3 c-16 2 -32 -2 -37 -10 -5 -7 -9 -91 -9 -185 l0 -173 -86 0
-86 0 4 242 c3 242 3 243 31 299 65 133 204 233 316 226 34 -2 36 -4 84 -114z
m249 91 l42 -27 -94 -43 c-51 -24 -94 -43 -95 -42 -7 10 -55 122 -55 129 0 5
36 9 80 9 70 0 86 -4 122 -26z m463 -9 c-8 -19 -22 -51 -30 -69 l-15 -35 -52
24 c-29 13 -73 32 -96 43 l-44 20 44 26 c37 22 54 26 126 26 l82 0 -15 -35z
m265 -1 c72 -32 161 -121 191 -190 29 -70 40 -177 37 -369 l-3 -170 -82 -3
-83 -3 0 171 c0 159 -1 171 -21 191 -18 18 -23 19 -42 6 -21 -14 -22 -22 -25
-191 l-2 -176 -185 0 c-102 0 -185 1 -186 3 0 1 -13 112 -29 247 l-28 245 39
37 40 36 44 -19 c32 -14 50 -17 63 -10 10 5 40 60 67 121 l49 112 48 -5 c27
-4 75 -18 108 -33z m-523 -100 l58 -25 -28 -25 c-24 -21 -38 -24 -100 -24 -60
0 -77 4 -101 24 l-30 23 55 26 c69 32 76 32 146 1z m-13 -191 c7 -48 46 -407
46 -427 0 -14 -16 -16 -106 -16 l-106 0 5 33 c3 17 16 125 28 240 l22 207 53
0 52 0 6 -37z"/>
<path d="M282 2228 c-9 -9 -12 -128 -12 -474 0 -407 2 -464 16 -478 13 -14 64
-16 404 -16 340 0 391 2 404 16 14 14 16 71 16 478 0 346 -3 465 -12 474 -17
17 -799 17 -816 0z m738 -473 l0 -405 -330 0 -330 0 0 405 0 405 330 0 330 0
0 -405z"/>
<path d="M512 2098 c-6 -6 -12 -20 -12 -29 0 -35 23 -40 195 -37 147 3 169 5
179 21 8 12 8 22 0 35 -10 15 -32 17 -180 20 -123 2 -173 -1 -182 -10z"/>
<path d="M448 1913 c-27 -7 -35 -53 -13 -70 23 -16 475 -19 506 -3 23 13 25
43 3 64 -13 14 -49 16 -247 15 -128 -1 -240 -3 -249 -6z"/>
<path d="M432 1708 c-16 -16 -15 -43 2 -57 9 -8 87 -11 261 -9 223 3 249 5
259 21 8 12 8 22 0 35 -10 15 -36 17 -260 20 -186 2 -253 -1 -262 -10z"/>
<path d="M432 1508 c-16 -16 -15 -43 2 -57 9 -8 87 -11 261 -9 223 3 249 5
259 21 8 12 8 22 0 35 -10 15 -36 17 -260 20 -186 2 -253 -1 -262 -10z"/>
<path d="M2754 2227 c-3 -8 -4 -49 -2 -92 2 -61 7 -80 21 -89 12 -8 22 -8 35
0 13 9 18 28 20 88 2 49 -1 83 -9 92 -15 18 -58 18 -65 1z"/>
<path d="M2478 2159 c-26 -14 -22 -42 12 -103 36 -63 52 -79 76 -74 38 7 41
35 9 96 -30 56 -58 92 -72 92 -5 0 -16 -5 -25 -11z"/>
<path d="M3052 2152 c-31 -26 -80 -121 -75 -143 6 -20 44 -36 62 -25 18 11 83
137 77 151 -10 27 -43 36 -64 17z"/>
<path d="M2664 1976 c-65 -30 -120 -85 -150 -150 -19 -40 -24 -68 -24 -129 0
-88 11 -116 73 -191 49 -59 66 -104 67 -177 0 -36 5 -61 14 -68 9 -8 59 -11
152 -9 l139 3 11 86 c13 98 21 116 79 181 51 57 70 116 63 201 -10 116 -92
226 -195 261 -70 24 -168 21 -229 -8z m191 -67 c57 -16 128 -91 144 -153 19
-78 6 -128 -50 -194 -49 -57 -73 -110 -85 -190 l-7 -43 -71 3 -71 3 -6 50 c-9
70 -32 121 -79 172 -49 52 -60 79 -60 141 0 149 138 251 285 211z"/>
<path d="M2254 1936 c-12 -32 4 -52 70 -90 76 -44 101 -42 101 9 0 24 -9 34
-55 61 -58 35 -107 43 -116 20z"/>
<path d="M3214 1920 c-64 -37 -78 -53 -69 -79 11 -36 40 -34 110 6 67 39 85
63 65 88 -19 22 -50 18 -106 -15z"/>
<path d="M2650 1180 c-8 -14 -8 -26 0 -40 10 -19 19 -20 137 -18 107 3 128 6
137 21 8 12 8 22 0 35 -9 14 -30 17 -137 20 -118 2 -127 1 -137 -18z"/>
<path d="M2693 1064 c-17 -7 -16 -49 1 -63 9 -8 46 -11 101 -9 71 2 90 6 99
21 8 12 8 22 0 35 -9 14 -28 17 -100 19 -49 1 -95 -1 -101 -3z"/>
</g>
</svg>
