<?xml version="1.0" standalone="no"?>
<!DOCTYPE svg PUBLIC "-//W3C//DTD SVG 20010904//EN"
 "http://www.w3.org/TR/2001/REC-SVG-20010904/DTD/svg10.dtd">
<svg version="1.0" xmlns="http://www.w3.org/2000/svg"
 width="200.000000pt" height="200.000000pt" viewBox="0 0 200.000000 200.000000"
 preserveAspectRatio="xMidYMid meet">

<g transform="translate(0.000000,200.000000) scale(0.100000,-0.100000)"
fill="#000000" stroke="none">
<path d="M832 1986 c-219 -42 -385 -129 -537 -281 -130 -129 -215 -277 -263
-454 -33 -127 -37 -342 -8 -466 90 -385 376 -671 761 -761 116 -27 330 -26
445 3 372 94 649 371 743 743 29 115 30 329 3 445 -88 379 -366 662 -741 756
-105 26 -304 34 -403 15z m281 -379 c98 -41 166 -161 154 -269 -13 -103 -96
-203 -190 -229 -64 -17 -158 -6 -211 25 -81 47 -136 141 -136 231 0 91 63 196
142 236 80 41 154 43 241 6z m176 -633 c62 -18 127 -73 152 -129 15 -33 19
-67 19 -192 l0 -153 -460 0 -460 0 0 153 c0 171 10 205 70 265 66 63 105 71
381 71 194 1 256 -2 298 -15z"/>
</g>
</svg>
