<?xml version="1.0" standalone="no"?>
<!DOCTYPE svg PUBLIC "-//W3C//DTD SVG 20010904//EN"
 "http://www.w3.org/TR/2001/REC-SVG-20010904/DTD/svg10.dtd">
<svg version="1.0" xmlns="http://www.w3.org/2000/svg"
 width="200.000000pt" height="200.000000pt" viewBox="0 0 200.000000 200.000000"
 preserveAspectRatio="xMidYMid meet">

<g transform="translate(0.000000,200.000000) scale(0.100000,-0.100000)"
fill="#000000" stroke="none">
<path d="M955 1945 c-47 -16 -84 -55 -92 -96 -5 -29 -6 -29 -79 -29 -40 0 -84
-4 -98 -10 -26 -9 -26 -10 -26 -124 0 -104 2 -116 19 -126 27 -14 615 -14 642
0 17 10 19 22 19 118 0 59 -5 114 -10 122 -7 11 -33 16 -100 18 -76 3 -90 7
-90 20 0 28 -37 80 -67 95 -46 23 -76 26 -118 12z m72 -101 c3 -8 -2 -23 -11
-32 -15 -15 -17 -15 -32 0 -21 21 -11 48 16 48 11 0 23 -7 27 -16z"/>
<path d="M293 1706 l-28 -24 -3 -774 c-1 -425 0 -783 3 -795 3 -12 15 -32 27
-43 21 -20 32 -20 710 -20 l689 0 24 25 25 24 0 786 0 787 -29 29 -29 29 -141
0 -141 0 0 -65 0 -64 98 -3 97 -3 0 -710 0 -710 -592 -3 -593 -2 0 715 0 715
95 0 95 0 0 65 0 65 -139 0 c-133 0 -141 -1 -168 -24z"/>
<path d="M872 1418 c-82 -29 -141 -56 -139 -62 2 -6 67 -33 145 -59 l141 -49
146 49 c81 27 147 53 148 58 2 8 -273 115 -293 114 -3 0 -69 -23 -148 -51z
m186 -37 c22 -14 10 -46 -19 -49 -34 -4 -57 22 -39 43 14 17 38 19 58 6z"/>
<path d="M770 1175 c0 -87 2 -96 23 -109 74 -49 400 -44 465 7 8 6 12 40 12
103 l0 93 -115 -39 c-63 -22 -123 -40 -133 -40 -10 0 -71 18 -135 39 l-117 40
0 -94z"/>
<path d="M520 885 c-7 -8 -10 -22 -6 -30 8 -23 644 -23 652 0 4 8 1 22 -6 30
-19 22 -621 22 -640 0z"/>
<path d="M1250 885 c-7 -8 -10 -22 -6 -30 9 -23 234 -22 243 1 12 32 -25 44
-128 44 -73 0 -100 -4 -109 -15z"/>
<path d="M514 735 c-13 -33 15 -45 100 -45 89 0 110 8 104 36 -3 17 -15 19
-101 22 -80 2 -98 0 -103 -13z"/>
<path d="M794 735 c-4 -8 -1 -22 6 -30 11 -13 62 -15 340 -15 344 0 360 2 344
44 -5 14 -41 16 -345 16 -294 0 -340 -2 -345 -15z"/>
<path d="M520 595 c-7 -8 -10 -22 -6 -30 5 -13 65 -15 479 -15 410 0 476 2
487 15 10 12 10 18 0 30 -19 22 -941 23 -960 0z"/>
<path d="M520 455 c-7 -8 -10 -22 -6 -30 5 -13 52 -15 351 -15 299 0 346 2
351 15 4 8 1 22 -6 30 -19 22 -671 22 -690 0z"/>
<path d="M1326 457 c-11 -8 -15 -19 -10 -30 5 -14 20 -17 85 -17 62 0 81 3 85
15 4 8 1 22 -6 30 -16 19 -129 21 -154 2z"/>
<path d="M514 305 c-4 -8 -1 -22 6 -30 11 -13 78 -15 480 -15 492 0 501 1 484
44 -6 14 -52 16 -485 16 -419 0 -480 -2 -485 -15z"/>
</g>
</svg>
